<?xml version="1.0" encoding="utf-8"?>
<!-- Generator: Adobe Illustrator 19.0.1, SVG Export Plug-In . SVG Version: 6.00 Build 0)  -->
<svg version="1.1" id="Layer_1" xmlns="http://www.w3.org/2000/svg" xmlns:xlink="http://www.w3.org/1999/xlink" x="0px" y="0px"
	 viewBox="0 0 50 50" style="enable-background:new 0 0 50 50;" xml:space="preserve">
<style type="text/css">
	.st0{display:none;}
	.st1{display:inline;}
	.st2{fill:#0D223E;}
	.st3{fill:none;stroke:#0D223E;stroke-width:0.75;stroke-miterlimit:10;}
</style>
<g>
	<g class="st0">
		<g class="st1">
			<path class="st2" d="M41.5,28.1H8.6c-0.2,0-0.3-0.1-0.3-0.3V4.6c0-0.2,0.1-0.3,0.3-0.3h32.9c0.2,0,0.3,0.1,0.3,0.3v23.2
				C41.8,28,41.7,28.1,41.5,28.1z M8.9,27.4h32.2V4.9H8.9V27.4z"/>
		</g>
		<g class="st1">
			<path class="st2" d="M39.2,25.9H10.8c-0.2,0-0.3-0.1-0.3-0.3V6.9c0-0.2,0.1-0.3,0.3-0.3h28.4c0.2,0,0.3,0.1,0.3,0.3v18.7
				C39.6,25.7,39.4,25.9,39.2,25.9z M11.2,25.2h27.8v-18H11.2V25.2z"/>
		</g>
		<g class="st1">
			<path class="st2" d="M30.1,32.8C30.1,32.8,30.1,32.8,30.1,32.8H20c-0.1,0-0.2-0.1-0.3-0.1c-0.1-0.1-0.1-0.2,0-0.3l1.5-4.7
				c0-0.1,0.2-0.2,0.3-0.2h7.1c0.1,0,0.3,0.1,0.3,0.2l1.5,4.6c0,0.1,0,0.1,0,0.2C30.4,32.6,30.3,32.8,30.1,32.8z M20.4,32.1h9.2
				l-1.3-4h-6.6L20.4,32.1z"/>
		</g>
		<g class="st1">
			<path class="st2" d="M25,31.1c-0.6,0-1-0.5-1-1c0-0.6,0.5-1,1-1c0.6,0,1,0.5,1,1C26.1,30.7,25.6,31.1,25,31.1z M25,29.7
				c-0.2,0-0.4,0.2-0.4,0.4s0.2,0.4,0.4,0.4c0.2,0,0.4-0.2,0.4-0.4S25.2,29.7,25,29.7z"/>
		</g>
		<g class="st1">
			<path class="st2" d="M39.6,44.4C39.6,44.4,39.6,44.4,39.6,44.4H10.5c-0.1,0-0.2,0-0.3-0.1c-0.1-0.1-0.1-0.2-0.1-0.3l1.5-9.2
				c0-0.2,0.2-0.3,0.3-0.3h26.1c0.2,0,0.3,0.1,0.3,0.3l1.5,9.2c0,0,0,0.1,0,0.1C39.9,44.2,39.8,44.4,39.6,44.4z M10.9,43.7h28.3
				l-1.4-8.6H12.3L10.9,43.7z"/>
		</g>
		<g class="st1">
			<path class="st2" d="M36,37H14.1c-0.2,0-0.3-0.1-0.3-0.3c0-0.2,0.1-0.3,0.3-0.3H36c0.2,0,0.3,0.1,0.3,0.3
				C36.3,36.9,36.2,37,36,37z"/>
		</g>
		<g class="st1">
			<path class="st2" d="M36,39.8H14.1c-0.2,0-0.3-0.1-0.3-0.3s0.1-0.3,0.3-0.3H36c0.2,0,0.3,0.1,0.3,0.3S36.2,39.8,36,39.8z"/>
		</g>
		<g class="st1">
			<path class="st2" d="M35.5,42.4h-5.6c-0.2,0-0.3-0.1-0.3-0.3c0-0.2,0.1-0.3,0.3-0.3h5.6c0.2,0,0.3,0.1,0.3,0.3
				C35.8,42.2,35.6,42.4,35.5,42.4z M19.6,42.4h-5.5c-0.2,0-0.3-0.1-0.3-0.3c0-0.2,0.1-0.3,0.3-0.3h5.5c0.2,0,0.3,0.1,0.3,0.3
				C19.9,42.2,19.7,42.4,19.6,42.4z"/>
		</g>
		<g class="st1">
			<path class="st2" d="M28,42.4h-7.2c-0.2,0-0.3-0.1-0.3-0.3c0-0.2,0.1-0.3,0.3-0.3H28c0.2,0,0.3,0.1,0.3,0.3
				C28.3,42.2,28.1,42.4,28,42.4z"/>
		</g>
		<g class="st1">
			<path class="st2" d="M19.4,21.5c-0.1,0-0.2,0-0.2-0.1C19,21.3,19,21.1,19.1,21l1.2-3c0,0,0-0.1,0.1-0.1l7.4-6.9
				c0.1-0.1,0.3-0.1,0.5,0l1.9,2.1c0.1,0.1,0.1,0.1,0.1,0.2c0,0.1,0,0.2-0.1,0.2l-7.4,6.9c0,0-0.1,0.1-0.1,0.1L19.4,21.5
				C19.4,21.5,19.4,21.5,19.4,21.5z M20.8,18.3l-0.9,2.3l2.4-0.7l7.1-6.6l-1.5-1.6L20.8,18.3z"/>
		</g>
		<g class="st1">
			<path class="st2" d="M22.6,20.6c-0.1,0-0.3-0.1-0.3-0.2L22.2,20L22,20c-0.2,0-0.3-0.1-0.3-0.3l-0.1-0.4h-0.3
				c-0.1,0-0.2,0-0.2-0.1C21,19.1,21,19.1,21,19l0-0.3l-0.4-0.1c-0.2,0-0.3-0.2-0.3-0.4c0-0.2,0.2-0.3,0.4-0.3l0.7,0.1
				c0.2,0,0.3,0.2,0.3,0.3l0,0.2h0.2c0.2,0,0.3,0.1,0.3,0.3l0.1,0.4l0.2,0c0.1,0,0.3,0.1,0.3,0.2l0.2,0.6
				C23,20.4,22.9,20.6,22.6,20.6C22.7,20.6,22.7,20.6,22.6,20.6z"/>
		</g>
		<g class="st1">
			<path class="st2" d="M30,13.6c-0.1,0-0.2,0-0.2-0.1l-2-2c-0.1-0.1-0.1-0.1-0.1-0.2c0-0.1,0-0.2,0.1-0.2l0.5-0.5
				c0.4-0.4,1.1-0.4,1.5,0l1,1c0.2,0.2,0.3,0.5,0.3,0.8c0,0.3-0.1,0.6-0.3,0.7l-0.5,0.5C30.2,13.5,30.1,13.6,30,13.6z M28.4,11.2
				l1.5,1.5l0.3-0.3c0.1-0.1,0.1-0.2,0.1-0.3c0-0.1,0-0.2-0.1-0.3l-1-1c-0.2-0.2-0.4-0.2-0.6,0L28.4,11.2z"/>
		</g>
	</g>
	<g class="st0">
		<g class="st1">
			<g>
				<path class="st2" d="M21.8,27.5c-4.4,0-8.5-2.4-10.7-6.2c-1.7-2.9-2.1-6.2-1.2-9.4c0.9-3.2,2.9-5.9,5.8-7.5
					c1.9-1.1,4-1.7,6.2-1.7c4.4,0,8.5,2.4,10.7,6.2c1.7,2.9,2.1,6.2,1.2,9.4c-0.9,3.2-2.9,5.9-5.8,7.5
					C26.1,26.9,23.9,27.5,21.8,27.5z M21.8,3.5c-2,0-4,0.5-5.8,1.6c-2.7,1.6-4.6,4.1-5.4,7.1c-0.8,3-0.4,6.1,1.2,8.8
					c2.1,3.6,5.9,5.8,10.1,5.8c2,0,4-0.5,5.8-1.6c2.7-1.6,4.6-4.1,5.4-7.1c0.8-3,0.4-6.1-1.2-8.8C29.8,5.7,25.9,3.5,21.8,3.5z"/>
			</g>
			<g>
				<path class="st2" d="M29.6,31.8C29.5,31.8,29.5,31.8,29.6,31.8c-0.2,0-0.3-0.1-0.3-0.2l-3-5.3c-0.1-0.1-0.1-0.2,0-0.3
					c0-0.1,0.1-0.2,0.2-0.2c0.4-0.2,0.8-0.4,1.2-0.6c0.4-0.2,0.7-0.4,1.1-0.7c0.1-0.1,0.2-0.1,0.3-0.1c0.1,0,0.2,0.1,0.2,0.2l3,5.3
					c0.1,0.2,0,0.4-0.1,0.5l-2.4,1.4C29.7,31.7,29.6,31.8,29.6,31.8z M27,26.3l2.7,4.6l1.8-1l-2.7-4.6c-0.3,0.2-0.6,0.4-0.9,0.6
					C27.7,26,27.4,26.2,27,26.3z"/>
			</g>
			<g>
				<path class="st2" d="M35.7,46.7C35.7,46.7,35.6,46.7,35.7,46.7c-0.2,0-0.3-0.1-0.3-0.2l-8-13.9c-0.1-0.2,0-0.4,0.1-0.5l6.1-3.5
					c0.1,0,0.2-0.1,0.3,0c0.1,0,0.2,0.1,0.2,0.2l8,13.9c0.1,0.2,0,0.4-0.1,0.5l-6.1,3.5C35.8,46.7,35.8,46.7,35.7,46.7z M28.2,32.6
					l7.6,13.3l5.5-3.2l-7.6-13.3L28.2,32.6z"/>
			</g>
			<g>
				<path class="st2" d="M36.7,42.7c-0.8,0-1.5-0.7-1.5-1.5c0-0.8,0.7-1.5,1.5-1.5c0.8,0,1.5,0.7,1.5,1.5
					C38.2,42.1,37.6,42.7,36.7,42.7z M36.7,40.4c-0.4,0-0.8,0.3-0.8,0.8s0.3,0.8,0.8,0.8c0.4,0,0.8-0.3,0.8-0.8S37.2,40.4,36.7,40.4
					z"/>
			</g>
			<g>
				<path class="st2" d="M21.7,20.4C21.7,20.4,21.7,20.4,21.7,20.4c-0.1,0-0.2-0.1-0.3-0.2L18,15c-0.1-0.1-0.1-0.2,0-0.3l2.3-6.8
					c0-0.1,0.2-0.2,0.3-0.2h2.3c0.2,0,0.3,0.1,0.3,0.2l2.3,6.8c0,0.1,0,0.2,0,0.3L22,20.3C22,20.4,21.9,20.4,21.7,20.4z M18.7,14.8
					l3,4.6l3.1-4.6l-2.2-6.4h-1.8L18.7,14.8z"/>
			</g>
			<g>
				<path class="st2" d="M20.5,8.4C20.5,8.4,20.5,8.4,20.5,8.4l-0.8,0c-0.2,0-0.4-0.2-0.4-0.4V6.5c0-0.2,0.2-0.4,0.4-0.4h4.1
					c0.2,0,0.4,0.2,0.4,0.4V8c0,0.2-0.2,0.4-0.4,0.4L20.5,8.4z M20.1,7.6l0.4,0l3,0V6.8h-3.4V7.6z"/>
			</g>
			<g>
				<path class="st2" d="M21.8,14.7c-0.8,0-1.5-0.7-1.5-1.5c0-0.8,0.7-1.5,1.5-1.5c0.8,0,1.5,0.7,1.5,1.5
					C23.2,14.1,22.6,14.7,21.8,14.7z M21.8,12.5c-0.4,0-0.7,0.3-0.7,0.7c0,0.4,0.3,0.7,0.7,0.7c0.4,0,0.7-0.3,0.7-0.7
					C22.5,12.9,22.2,12.5,21.8,12.5z"/>
			</g>
			<g>
				<path class="st2" d="M21.7,20.4C21.7,20.4,21.7,20.4,21.7,20.4c-0.2,0-0.4-0.2-0.4-0.4l0-5.7c0-0.2,0.2-0.4,0.4-0.4c0,0,0,0,0,0
					c0.2,0,0.4,0.2,0.4,0.4l0,5.7C22.1,20.3,21.9,20.4,21.7,20.4z"/>
			</g>
			<g>
				<path class="st2" d="M25.8,21.4h-8c-0.2,0-0.4-0.2-0.4-0.4c0-0.2,0.2-0.4,0.4-0.4h8c0.2,0,0.4,0.2,0.4,0.4
					C26.1,21.2,26,21.4,25.8,21.4z"/>
			</g>
		</g>
	</g>
	<g class="st0">
		<g class="st1">
			<g>
				<path class="st2" d="M29.3,42.5C29.3,42.5,29.3,42.5,29.3,42.5H7.4c-0.2,0-0.4-0.2-0.4-0.4V3.9c0-0.2,0.2-0.4,0.4-0.4H28
					c0.1,0,0.2,0,0.2,0.1L38.6,14c0.1,0.1,0.1,0.2,0.1,0.2v18.4c0,0.1-0.1,0.2-0.2,0.3c-0.1,0.1-0.2,0.1-0.3,0
					c-0.8-0.3-1.7-0.5-2.6-0.5c-3.7,0-6.7,3-6.7,6.7c0,1,0.2,1.9,0.6,2.8c0,0.1,0.1,0.1,0.1,0.2C29.7,42.3,29.5,42.5,29.3,42.5z
					 M7.7,41.8h21c-0.3-0.8-0.5-1.7-0.5-2.7c0-4.1,3.3-7.4,7.4-7.4c0.8,0,1.6,0.1,2.3,0.4V14.4L27.8,4.2H7.7V41.8z"/>
			</g>
			<g>
				<path class="st2" d="M38.6,14.8C38.6,14.8,38.6,14.8,38.6,14.8H28.2c-0.2,0-0.4-0.2-0.4-0.4V4.1c0-0.1,0.1-0.3,0.2-0.3
					c0.1-0.1,0.3,0,0.4,0.1l10.3,10.3c0.1,0.1,0.2,0.2,0.2,0.3C39,14.7,38.8,14.8,38.6,14.8z M28.6,14.1h9.1L28.6,5V14.1z"/>
			</g>
			<g>
				<path class="st2" d="M22.9,8.8H12.1c-0.2,0-0.4-0.2-0.4-0.4s0.2-0.4,0.4-0.4h10.8c0.2,0,0.4,0.2,0.4,0.4S23.1,8.8,22.9,8.8z"/>
			</g>
			<g>
				<path class="st2" d="M26,13.3H12.1c-0.2,0-0.4-0.2-0.4-0.4c0-0.2,0.2-0.4,0.4-0.4H26c0.2,0,0.4,0.2,0.4,0.4
					C26.4,13.2,26.2,13.3,26,13.3z"/>
			</g>
			<g>
				<path class="st2" d="M32.4,27.6H12.1c-0.2,0-0.4-0.2-0.4-0.4c0-0.2,0.2-0.4,0.4-0.4h20.2c0.2,0,0.4,0.2,0.4,0.4
					C32.7,27.5,32.6,27.6,32.4,27.6z"/>
			</g>
			<g>
				<path class="st2" d="M32.4,23.2H12.1c-0.2,0-0.4-0.2-0.4-0.4c0-0.2,0.2-0.4,0.4-0.4h20.2c0.2,0,0.4,0.2,0.4,0.4
					C32.7,23.1,32.6,23.2,32.4,23.2z"/>
			</g>
			<g>
				<path class="st2" d="M32.4,18.7H12.1c-0.2,0-0.4-0.2-0.4-0.4c0-0.2,0.2-0.4,0.4-0.4h20.2c0.2,0,0.4,0.2,0.4,0.4
					C32.7,18.5,32.6,18.7,32.4,18.7z"/>
			</g>
			<g>
				<path class="st2" d="M35.6,46.5c-4.1,0-7.4-3.3-7.4-7.4c0-4.1,3.3-7.4,7.4-7.4c4.1,0,7.4,3.3,7.4,7.4
					C43,43.2,39.7,46.5,35.6,46.5z M35.6,32.5c-3.7,0-6.7,3-6.7,6.7c0,3.7,3,6.7,6.7,6.7c3.7,0,6.7-3,6.7-6.7
					C42.3,35.4,39.3,32.5,35.6,32.5z"/>
			</g>
			<g>
				<path class="st2" d="M35,40.3c-0.1,0-0.1,0-0.2,0l-2.3-1.1c-0.2-0.1-0.3-0.3-0.2-0.5c0.1-0.2,0.3-0.3,0.5-0.2l2.1,1l3.5-1.6
					c0.2-0.1,0.4,0,0.5,0.2c0.1,0.2,0,0.4-0.2,0.5l-3.6,1.7C35.1,40.3,35,40.3,35,40.3z"/>
			</g>
		</g>
	</g>
	<g>
		<path class="st3" d="M45.2,35.8c0,0.4,0,0.8-0.1,1.2c-0.2,1.4-1.3,2.7-2.7,3c-0.3,0.1-0.7,0.1-1,0.1c-1.7,0-3.4,0-5.1,0
			c-4.8,0-9.5,0-14.3,0c-0.7,0-1.4,0-2.1-0.1c-0.7,0-1.3-0.3-1.9-0.8c-0.6-0.5-1-1.2-1.3-2c0-0.1,0-0.1,0-0.2c0-4.1,0-8.2,0-12.3
			c0-0.7,0-1.5,0.1-2.2c0.2-1.4,1.3-2.5,2.6-2.9c0.2-0.1,0.4-0.1,0.6-0.1c2.2,0,4.4,0,6.6,0c3.2,0,6.3,0,9.5,0c2,0,4,0,6.1,0
			c0.1,0,0.2,0,0.4,0.1c0.5,0.2,1,0.5,1.5,0.9c0.6,0.6,1.1,1.4,1.1,2.3c0,0.9,0,1.9,0,2.8c0,0.1,0,0.2,0,0.4
			C45.2,29.3,45.2,32.6,45.2,35.8z M19.1,27.2c0,0.1,0,0.1,0,0.2c0,2.4,0,4.7,0,7.1c0,0.8,0,1.5,0,2.3c0,0.3,0.2,0.6,0.4,0.8
			c0.3,0.2,0.6,0.3,0.9,0.3c2.8,0,5.6,0.1,8.4,0.1c3,0,6,0,9,0c1.4,0,2.7,0,4.1,0c0.6,0,1.1-0.5,1.2-1.1c0-0.3,0-0.6,0-0.9
			c0-2.8,0-5.6,0-8.5c0-0.1,0-0.1,0-0.2C35.2,27.2,27.2,27.2,19.1,27.2z M19.1,23.7c0.1,0,0.2,0,0.2,0c7.7,0,15.4,0,23.1,0
			c0.2,0,0.4,0,0.6,0c0.1,0,0.1-0.1,0.1-0.1c0-0.4,0-0.7-0.2-1c-0.2-0.4-0.6-0.6-1.1-0.6c-0.3,0-0.6,0-0.9,0c-2.6,0-5.1,0-7.7,0
			c-4.3,0-8.6,0-13,0.1c-0.6,0-1,0.3-1.2,0.9C19.1,23.1,19.1,23.4,19.1,23.7z"/>
		<path class="st3" d="M4.8,22.4C4.9,22,5,21.6,5.1,21.3c0.4-0.9,1.1-1.5,2-2c3.4-1.7,6.8-3.4,10.3-5.1c2.8-1.4,5.6-2.7,8.4-4.1
			c1.2-0.6,3.6-0.3,4.5,1.4c0.6,1.2,1.3,2.4,1.9,3.7c0.3,0.7,0.7,1.3,1,2c-0.1,0-0.1,0-0.2,0c-4.6,0-9.1,0-13.7,0.1
			c-0.4,0-0.8,0.2-1.2,0.4c-1.6,0.7-2.7,1.9-3.3,3.6c-0.1,0.4-0.2,0.8-0.2,1.2c0,4.1,0,8.2,0,12.4c0,1.1,0.1,2.1,0.6,3.1
			c0,0.1,0.1,0.2,0.1,0.3c-0.5,0.1-1,0.1-1.5,0c-1.2-0.2-2.1-0.8-2.7-2c-2-4-4-8.1-6-12.1c-0.2-0.3-0.2-0.7-0.3-1
			C4.8,22.9,4.8,22.6,4.8,22.4z"/>
		<path class="st3" d="M24.7,35.6c-0.5,0.6-1.1,0.8-1.9,0.8c-0.6,0-1.1-0.2-1.5-0.6c-0.9-0.9-1-2.3-0.2-3.2c0.5-0.6,1.1-0.9,1.8-0.9
			c0.7,0,1.3,0.3,1.9,0.8c0.6-0.6,1.3-0.9,2.2-0.8c0.5,0.1,1,0.3,1.4,0.8c0.8,0.9,0.8,2.3,0,3.2C27.6,36.4,25.8,36.8,24.7,35.6z"/>
	</g>
</g>
</svg>
