<?xml version="1.0" standalone="no"?><!DOCTYPE svg PUBLIC "-//W3C//DTD SVG 1.1//EN" "http://www.w3.org/Graphics/SVG/1.1/DTD/svg11.dtd"><svg fill="#e9284b" class="icon" height="512" viewBox="0 0 1024 1024" version="1.1" xmlns="http://www.w3.org/2000/svg"><path d="M955.2896 359.7312l-460.8-153.6c-5.2736-1.7408-10.9568-1.7408-16.1792 0l-460.8 153.6c-10.4448 3.4816-17.5104 13.2608-17.5104 24.2688s7.0656 20.7872 17.5104 24.2688l136.0896 45.3632 0 135.168c0 6.8096 2.7136 13.312 7.4752 18.1248 4.5056 4.5056 112.3328 109.8752 325.3248 109.8752 77.4656 0 149.7088-13.9264 214.784-41.4208 13.0048-5.4784 19.0976-20.5312 13.6192-33.536s-20.5312-19.0976-33.536-13.6192c-58.7264 24.832-124.2624 37.376-194.816 37.376-99.584 0-172.8512-25.8048-216.7808-47.4112-32.512-16.0256-54.272-32.2048-64.8192-40.9088l0-106.5472 273.5104 91.1872c2.6112 0.8704 5.376 1.3312 8.0896 1.3312s5.4784-0.4608 8.0896-1.3312l273.5104-91.1872 0 45.6704c-29.7984 10.5472-51.2 39.0144-51.2 72.3968 0 31.2832 18.7904 58.2144 45.6704 70.1952l-44.9024 179.6096c-1.8944 7.6288-0.2048 15.7696 4.6592 21.9648s12.288 9.8304 20.1728 9.8304l102.4 0c7.8848 0 15.3088-3.6352 20.1728-9.8304s6.5536-14.336 4.6592-21.9648l-44.9024-179.6096c26.88-11.9808 45.6704-38.912 45.6704-70.1952 0-33.3824-21.4016-61.8496-51.2-72.3968l0-62.7712 136.0896-45.3632c10.4448-3.4816 17.5104-13.2608 17.5104-24.2688s-7.0656-20.7872-17.5104-24.2688zM793.6 563.2c14.1312 0 25.6 11.4688 25.6 25.6s-11.4688 25.6-25.6 25.6-25.6-11.4688-25.6-25.6 11.4688-25.6 25.6-25.6zM775.168 819.2l18.432-73.6256 18.432 73.6256-36.8128 0zM791.552 408.8832l-300.9024-50.176c-13.9776-2.304-27.136 7.1168-29.44 21.0432s7.1168 27.136 21.0432 29.44l205.5168 34.2528-201.3184 67.1232-379.8528-126.6176 379.8528-126.6176 379.8528 126.6176-74.7008 24.8832z" /></svg>